<?xml version="1.0" standalone="no"?>
<!DOCTYPE svg PUBLIC "-//W3C//DTD SVG 20010904//EN"
 "http://www.w3.org/TR/2001/REC-SVG-20010904/DTD/svg10.dtd">
<svg version="1.0" xmlns="http://www.w3.org/2000/svg"
 width="2048.000000pt" height="1158.000000pt" viewBox="0 0 2048.000000 1158.000000"
 preserveAspectRatio="xMidYMid meet">

<g transform="translate(0.000000,1158.000000) scale(0.100000,-0.100000)"
fill="#000000" stroke="none">
<path d="M10050 11319 c-290 -11 -472 -33 -815 -98 -237 -44 -336 -68 -515
-125 -63 -20 -149 -46 -190 -57 -41 -11 -88 -27 -105 -34 -70 -33 -281 -115
-296 -115 -9 0 -27 -8 -40 -18 -13 -10 -40 -24 -59 -32 -84 -32 -438 -214
-450 -231 -3 -4 -26 -17 -51 -27 -26 -11 -86 -46 -134 -79 -48 -32 -108 -70
-133 -85 -26 -14 -63 -40 -82 -56 -20 -16 -62 -46 -94 -67 -78 -50 -257 -191
-418 -330 -85 -73 -361 -344 -449 -441 -114 -125 -283 -332 -339 -414 -19 -28
-43 -59 -53 -68 -10 -9 -30 -37 -45 -62 -14 -25 -42 -67 -61 -95 -52 -71 -172
-264 -239 -384 -62 -112 -204 -401 -251 -516 -23 -55 -49 -114 -56 -131 -8
-17 -39 -103 -69 -191 -30 -89 -59 -169 -64 -180 -6 -10 -34 -113 -62 -228
-28 -116 -55 -217 -60 -225 -12 -24 -67 -347 -84 -501 -29 -251 -47 -522 -47
-714 0 -317 40 -745 96 -1040 35 -182 150 -642 164 -659 5 -6 34 -83 64 -171
30 -88 71 -198 92 -245 20 -47 50 -116 66 -155 71 -167 280 -552 388 -713 20
-30 47 -71 61 -91 14 -21 39 -59 55 -85 17 -27 42 -62 58 -79 15 -18 45 -58
66 -89 22 -32 55 -77 75 -100 184 -221 257 -301 445 -488 119 -118 236 -231
260 -250 25 -19 65 -53 90 -76 25 -22 105 -85 176 -140 72 -54 135 -102 140
-107 6 -4 22 -16 36 -25 14 -9 74 -48 132 -87 171 -113 248 -160 332 -206 44
-23 127 -69 185 -101 57 -32 109 -58 115 -58 6 0 61 -25 121 -55 61 -30 137
-64 170 -75 32 -12 75 -29 94 -38 70 -31 367 -133 475 -162 424 -116 642 -156
1060 -196 204 -20 718 -22 905 -5 296 28 641 78 760 110 252 69 389 104 420
109 19 2 40 8 46 13 5 4 68 28 140 52 71 25 156 56 189 70 33 14 87 35 120 48
107 40 425 195 580 282 143 80 180 104 344 213 186 124 443 314 471 349 8 10
33 31 55 47 101 74 493 459 567 558 15 19 50 59 78 89 28 29 63 72 77 95 15
22 32 46 39 51 13 10 127 163 207 276 64 92 184 281 215 339 16 30 43 78 61
105 17 28 45 79 62 115 32 66 58 119 101 201 14 25 42 88 63 140 20 52 50 121
65 154 31 68 84 210 105 282 7 26 25 80 39 119 24 68 102 341 113 394 2 14 13
66 23 115 62 293 107 644 121 936 22 451 -19 900 -130 1444 -51 249 -202 718
-295 920 -13 28 -27 61 -31 75 -10 33 -193 408 -215 440 -10 14 -37 61 -60
105 -76 142 -268 430 -393 589 -34 44 -78 100 -97 126 -71 97 -305 353 -437
480 -134 128 -267 249 -296 269 -13 9 -34 27 -48 40 -13 13 -56 47 -95 76 -40
30 -75 58 -78 64 -4 6 -37 31 -74 56 -93 62 -113 76 -145 102 -16 13 -61 42
-100 65 -40 23 -74 44 -77 47 -12 14 -70 50 -135 85 -38 21 -74 42 -80 46 -27
20 -297 159 -430 221 -154 71 -459 188 -605 232 -47 14 -137 41 -200 60 -133
41 -245 67 -420 97 -69 11 -141 25 -160 31 -54 15 -319 46 -485 58 -209 15
-429 18 -635 10z m-403 -257 c111 -92 427 -388 468 -437 45 -56 111 -90 155
-80 18 4 59 35 103 78 40 40 113 108 162 152 49 44 129 119 177 167 128 127
142 132 353 124 223 -9 264 -21 280 -87 5 -20 0 -33 -18 -55 -24 -27 -31 -29
-110 -32 -66 -3 -89 -8 -101 -21 -14 -15 -17 -60 -21 -282 -2 -145 -7 -364
-11 -486 l-6 -223 23 0 c76 0 149 -50 149 -101 0 -41 -69 -99 -118 -99 -63 0
-414 30 -460 39 -113 22 -125 130 -19 170 16 6 64 11 108 11 l80 0 -3 415 c-3
349 -5 417 -17 425 -18 11 -56 -8 -93 -47 -14 -15 -80 -79 -145 -142 -65 -63
-152 -149 -193 -191 -127 -130 -170 -130 -298 -1 -42 42 -131 129 -197 192
-66 64 -128 127 -138 142 -19 29 -48 35 -64 15 -24 -31 -24 -131 3 -711 l7
-148 78 7 c102 9 124 2 145 -42 15 -31 15 -40 4 -75 -8 -22 -21 -44 -29 -48
-9 -4 -63 -13 -121 -20 -58 -6 -178 -21 -267 -33 -178 -24 -197 -21 -229 27
-14 21 -15 34 -8 63 12 47 58 79 130 88 l55 6 -5 122 c-3 66 -11 281 -16 476
-6 195 -13 369 -16 386 -2 18 -14 44 -25 58 -19 24 -27 26 -95 26 -71 0 -77 2
-106 30 -24 25 -29 36 -23 58 15 61 65 84 225 106 153 21 200 17 247 -22z
m4297 -1415 c44 -30 345 -336 367 -372 35 -57 14 -125 -39 -125 -34 0 -89 20
-122 43 -56 39 -102 12 -154 -93 -16 -30 -36 -64 -46 -75 -10 -11 -25 -35 -34
-53 -10 -18 -47 -80 -84 -137 -179 -276 -178 -276 -143 -295 25 -13 115 -13
166 1 48 13 63 16 380 79 138 28 264 50 281 50 73 0 70 -64 -8 -217 -29 -58
-78 -155 -109 -216 -31 -62 -60 -116 -65 -122 -25 -29 -128 -255 -117 -255 13
0 158 41 178 50 11 5 83 25 160 44 254 64 316 83 338 105 19 18 20 24 9 54
-27 76 -2 139 60 151 40 7 89 -5 99 -25 4 -7 27 -57 52 -109 81 -172 117 -245
137 -280 24 -42 26 -112 4 -150 -19 -31 -63 -60 -92 -60 -31 0 -88 64 -107
120 -27 82 -55 90 -170 52 -58 -20 -201 -61 -325 -92 -168 -44 -310 -81 -460
-121 -191 -52 -290 -43 -290 25 0 23 26 81 64 141 14 22 39 66 56 98 16 32 38
71 48 85 11 15 34 54 52 87 18 33 41 71 51 84 11 13 19 28 19 33 0 4 18 38 40
74 22 36 40 70 40 74 0 4 7 13 15 20 8 7 19 28 25 48 13 48 -2 66 -48 57 -19
-4 -54 -9 -76 -11 -49 -6 -230 -41 -461 -90 -222 -47 -265 -51 -300 -28 -23
15 -26 23 -22 54 4 30 83 171 123 220 7 8 27 42 45 75 18 33 43 74 56 91 22
30 123 194 123 200 0 2 21 34 46 70 25 37 56 88 70 113 14 25 54 91 89 146 43
66 65 110 65 130 0 40 -32 90 -69 109 -41 22 -61 54 -61 98 0 32 5 41 33 58
36 23 65 20 111 -13z m-3459 -106 c204 -12 428 -39 555 -66 114 -25 395 -101
413 -112 6 -3 34 -12 61 -19 28 -7 101 -34 161 -59 61 -25 127 -53 148 -62 52
-22 267 -131 357 -182 130 -73 452 -297 513 -357 15 -15 53 -48 85 -73 98 -79
358 -348 440 -455 15 -19 44 -57 65 -83 78 -99 170 -231 214 -308 25 -44 51
-87 58 -95 20 -23 192 -364 205 -407 7 -21 29 -78 50 -128 46 -109 120 -341
120 -376 0 -14 4 -29 9 -35 15 -16 60 -228 85 -406 51 -348 49 -730 -4 -1098
-23 -157 -68 -371 -81 -384 -5 -6 -9 -22 -9 -36 0 -37 -86 -301 -126 -388 -19
-40 -34 -78 -34 -84 0 -16 -74 -178 -108 -234 -16 -28 -34 -66 -41 -85 -6 -19
-27 -59 -47 -89 -20 -30 -57 -91 -83 -135 -26 -44 -75 -117 -109 -162 -34 -45
-62 -85 -62 -88 0 -15 -209 -259 -320 -374 -250 -259 -507 -458 -834 -647 -92
-53 -182 -102 -200 -108 -17 -6 -62 -27 -101 -47 -63 -32 -122 -56 -330 -135
-228 -86 -571 -161 -890 -195 -149 -16 -561 -16 -715 -1 -145 15 -449 61 -475
72 -11 4 -78 22 -148 40 -118 29 -171 46 -367 115 -85 31 -199 78 -247 104
-21 11 -77 38 -124 60 -48 22 -111 55 -140 74 -30 18 -85 50 -124 71 -38 20
-74 43 -80 49 -5 7 -28 24 -50 37 -46 27 -206 144 -280 204 -133 108 -425 386
-425 404 0 4 -27 34 -59 67 -33 33 -72 78 -88 101 -48 70 -148 199 -155 202
-5 2 -8 8 -8 14 0 5 -24 44 -54 86 -29 43 -67 102 -83 132 -16 30 -39 71 -51
90 -40 63 -150 293 -202 420 -81 198 -195 593 -219 760 -63 442 -63 926 1
1310 20 124 87 380 154 585 39 124 205 488 266 585 12 19 32 55 46 80 13 25
50 84 83 132 32 48 59 90 59 93 0 3 29 42 63 88 35 45 81 105 101 132 67 88
357 393 425 447 14 11 51 43 83 71 31 29 91 78 135 109 43 32 94 71 113 88 19
16 40 30 46 30 6 0 41 23 77 50 36 28 68 50 70 50 2 0 59 32 126 70 172 99
378 196 527 250 28 10 59 22 70 28 34 18 328 102 499 142 100 24 380 59 545
69 178 11 274 12 445 2z m-3901 -236 c26 -15 59 -45 73 -66 26 -39 52 -137 53
-196 0 -36 2 -38 32 -22 39 21 158 49 208 49 127 0 291 -76 358 -166 58 -78
76 -130 76 -220 1 -45 -4 -92 -11 -105 -6 -13 -26 -55 -43 -92 -18 -38 -47
-88 -64 -110 -18 -23 -49 -69 -70 -102 -21 -33 -52 -80 -69 -105 -84 -123
-127 -190 -127 -199 0 -6 -4 -11 -10 -11 -5 0 -19 -19 -31 -42 -62 -123 -183
-311 -213 -329 -47 -29 -98 -25 -135 10 -38 36 -41 78 -7 118 42 51 50 73 35
100 -13 24 -163 143 -181 143 -6 0 -40 22 -77 49 -36 27 -104 74 -151 105 -96
63 -203 137 -305 213 l-70 52 -55 -54 c-81 -80 -158 -107 -181 -64 -20 39 -2
96 51 160 27 32 68 92 91 131 23 40 52 85 63 99 12 15 30 42 41 60 114 192
258 402 317 461 78 77 116 105 195 139 84 36 137 35 207 -6z"/>
<path d="M10185 9378 c-71 -4 -166 -12 -210 -17 -44 -6 -124 -15 -178 -21 -54
-5 -126 -16 -160 -25 -34 -8 -125 -28 -202 -46 -201 -46 -451 -129 -610 -203
-163 -76 -233 -111 -255 -126 -14 -10 -56 -35 -95 -55 -38 -21 -99 -59 -135
-84 -36 -26 -78 -55 -95 -65 -49 -31 -170 -123 -185 -141 -8 -10 -22 -20 -31
-24 -9 -3 -45 -31 -79 -61 -74 -64 -330 -318 -330 -327 0 -3 -19 -27 -42 -52
-58 -63 -83 -94 -105 -128 -17 -27 -68 -98 -98 -138 -42 -55 -65 -90 -65 -97
0 -5 -24 -45 -53 -91 -30 -45 -63 -100 -74 -122 -12 -22 -31 -58 -42 -80 -22
-41 -102 -206 -125 -260 -7 -16 -18 -41 -24 -55 -33 -73 -116 -302 -127 -347
-3 -10 -20 -76 -40 -148 -59 -218 -91 -450 -94 -677 l-2 -138 1786 0 1785 0 0
-1823 0 -1823 68 3 c37 2 126 11 197 19 72 9 166 20 210 24 158 16 404 68 575
122 210 65 287 92 340 116 30 15 60 27 65 28 24 6 153 63 188 84 45 27 118 66
205 111 34 18 62 36 62 41 0 4 4 8 9 8 22 0 282 186 401 286 115 97 349 329
384 382 16 23 32 42 36 42 10 0 124 159 212 295 57 88 218 375 218 388 0 8 68
156 90 198 23 42 117 314 161 464 26 86 67 275 100 450 21 110 41 339 44 500
l4 170 -1772 5 -1772 5 -5 1720 -5 1720 -130 -7z"/>
<path d="M6340 9099 c-27 -11 -110 -88 -110 -101 0 -5 -8 -21 -18 -36 -82
-121 -102 -151 -102 -157 0 -3 -18 -33 -40 -65 -22 -32 -40 -61 -40 -64 0 -2
-14 -28 -32 -56 -25 -40 -29 -53 -19 -63 6 -7 56 -40 109 -73 110 -70 105 -70
159 16 20 30 58 83 84 116 27 34 49 65 49 70 0 4 24 40 54 79 102 135 115 180
75 263 -32 65 -106 96 -169 71z"/>
<path d="M6843 8850 c-23 -5 -52 -14 -65 -21 -45 -23 -111 -83 -142 -129 -17
-25 -61 -91 -98 -146 -36 -54 -88 -131 -116 -171 l-49 -71 -44 24 c-24 14 -33
17 -20 7 31 -24 85 -56 146 -89 28 -15 88 -52 135 -83 47 -32 108 -70 135 -86
28 -15 61 -35 75 -44 17 -11 22 -12 16 -3 -5 9 4 32 26 65 19 29 65 99 102
157 38 58 90 136 115 173 74 109 90 139 97 185 10 66 -9 113 -67 166 -66 60
-157 84 -246 66z"/>
</g>
</svg>
